<?xml version="1.0" encoding="UTF-8"?>
<svg xmlns="http://www.w3.org/2000/svg" xmlns:xlink="http://www.w3.org/1999/xlink" width="100px" height="100px" viewBox="0 0 100 100" version="1.1">
<g id="surface1">
<path style=" stroke:none;fill-rule:nonzero;fill:rgb(100%,34.901961%,0%);fill-opacity:1;" d="M 47.550781 21.011719 C 43.113281 21.011719 38.960938 21.289062 34.800781 21.5625 C 23.710938 22.398438 12.898438 24.335938 2.101562 27.101562 L 11.523438 37.914062 C 18.738281 36.25 25.9375 35.136719 33.148438 34.585938 C 29.824219 47.886719 22.335938 59.539062 11.523438 67.574219 L 11.523438 82.824219 C 29.8125 72.574219 42.5625 54.550781 46.449219 33.761719 C 47.273438 29.613281 47.550781 25.175781 47.550781 21.011719 Z M 47.550781 21.011719 "/>
<path style=" stroke:none;fill-rule:nonzero;fill:rgb(100%,34.901961%,0%);fill-opacity:1;" d="M 98 27.113281 C 87.1875 24.335938 76.375 22.398438 65.300781 21.574219 C 61.136719 21.300781 56.710938 21.023438 52.550781 21.023438 C 52.550781 25.460938 52.824219 29.613281 53.664062 33.773438 C 57.539062 54.5625 70.289062 72.300781 88.585938 82.835938 L 88.585938 67.585938 C 77.773438 59.550781 70.300781 47.914062 66.960938 34.601562 C 74.175781 35.148438 81.375 36.539062 88.585938 37.925781 Z M 98 27.113281 "/>
<path style=" stroke:none;fill-rule:nonzero;fill:rgb(100%,34.901961%,0%);fill-opacity:1;" d="M 44.226562 83.101562 L 55.875 69.800781 L 55.875 55.664062 L 44.226562 55.664062 Z M 44.226562 83.101562 "/>
</g>
</svg>
