<?xml version="1.0" encoding="UTF-8"?>
<svg xmlns="http://www.w3.org/2000/svg" xmlns:xlink="http://www.w3.org/1999/xlink" width="100px" height="100px" viewBox="0 0 100 100" version="1.1">
<g id="surface1">
<path style=" stroke:none;fill-rule:nonzero;fill:rgb(100%,0%,0%);fill-opacity:1;" d="M 49.863281 16.5 L 42.210938 5.585938 L 38.460938 0.238281 C 38.398438 0.136719 38.300781 0.0859375 38.1875 0.0859375 L 3.0625 0.0859375 C 2.9375 0.0859375 2.898438 0.136719 2.898438 0.226562 L 2.898438 53.101562 C 2.886719 53.226562 2.925781 53.335938 3.011719 53.425781 L 6.5 57.574219 L 19.898438 73.550781 L 22.988281 77.238281 L 27.75 82.898438 L 41.925781 99.800781 C 41.988281 99.886719 42.101562 99.9375 42.199219 99.914062 L 57.773438 99.914062 C 57.886719 99.925781 57.988281 99.875 58.050781 99.800781 L 72.226562 82.914062 L 77 77.25 L 80.085938 73.5625 L 93.5 57.585938 L 96.988281 53.425781 C 97.074219 53.335938 97.113281 53.226562 97.101562 53.101562 L 97.101562 0.210938 C 97.101562 0.125 97.050781 0.0742188 96.9375 0.0742188 L 61.800781 0.0742188 C 61.6875 0.0625 61.574219 0.125 61.523438 0.226562 L 57.773438 5.574219 L 50.125 16.5 C 50.023438 16.664062 49.988281 16.6875 49.863281 16.5 Z M 49.835938 82.773438 L 28.710938 57.585938 L 28.476562 57.3125 C 28.398438 57.226562 28.386719 57.113281 28.425781 57.011719 L 32.75 40.875 C 32.824219 40.601562 32.75 40.574219 32.488281 40.574219 L 20.101562 40.574219 C 19.949219 40.574219 19.914062 40.523438 19.914062 40.363281 L 19.914062 17.300781 C 19.914062 17.125 19.960938 17.085938 20.136719 17.085938 L 29.3125 17.085938 C 29.4375 17.074219 29.5625 17.125 29.613281 17.238281 L 36.460938 27.039062 L 42.363281 35.476562 C 42.460938 35.675781 42.6875 35.789062 42.898438 35.75 L 57.074219 35.75 C 57.300781 35.789062 57.511719 35.675781 57.613281 35.476562 L 63.511719 27.039062 L 70.363281 17.238281 C 70.425781 17.125 70.550781 17.074219 70.664062 17.085938 L 79.875 17.085938 C 80.039062 17.085938 80.101562 17.113281 80.101562 17.300781 L 80.101562 40.363281 C 80.101562 40.523438 80.0625 40.585938 79.914062 40.574219 L 67.523438 40.574219 C 67.273438 40.574219 67.1875 40.601562 67.261719 40.875 L 71.585938 57 C 71.636719 57.101562 71.613281 57.210938 71.539062 57.300781 L 71.300781 57.574219 L 50.175781 82.773438 C 50.023438 82.925781 50 82.960938 49.835938 82.773438 Z M 49.835938 82.773438 "/>
</g>
</svg>
